<?xml version="1.0" encoding="utf-8"?>
<!-- Generator: Adobe Illustrator 24.0.1, SVG Export Plug-In . SVG Version: 6.00 Build 0)  -->
<svg version="1.1" id="Layer_1" xmlns="http://www.w3.org/2000/svg" xmlns:xlink="http://www.w3.org/1999/xlink" x="0px" y="0px"
	 viewBox="0 0 52.3 41.3" style="enable-background:new 0 0 52.3 41.3;" xml:space="preserve">
<style type="text/css">
	.st0{fill:#9D9D9C;}
</style>
<path class="st0" d="M52.3,4.7c0,2.6-2.3,4.7-5.2,4.7H5.2C2.3,9.5,0,7.3,0,4.7l0,0C0,2.1,2.3,0,5.2,0h41.9C50,0,52.3,2.1,52.3,4.7
	L52.3,4.7z"/>
<path class="st0" d="M52.3,20.7c0,2.6-2.3,4.7-5.2,4.7H5.2c-2.9,0-5.2-2.1-5.2-4.7l0,0c0-2.6,2.3-4.7,5.2-4.7h41.9
	C50,15.9,52.3,18,52.3,20.7L52.3,20.7z"/>
<path class="st0" d="M52.3,36.6c0,2.6-2.3,4.7-5.2,4.7H5.2c-2.9,0-5.2-2.1-5.2-4.7l0,0c0-2.6,2.3-4.7,5.2-4.7h41.9
	C50,31.8,52.3,34,52.3,36.6L52.3,36.6z"/>
</svg>
