<?xml version="1.0" encoding="utf-8"?>
<!-- Generator: Adobe Illustrator 24.0.1, SVG Export Plug-In . SVG Version: 6.00 Build 0)  -->
<svg version="1.1" id="Layer_1" xmlns="http://www.w3.org/2000/svg" xmlns:xlink="http://www.w3.org/1999/xlink" x="0px" y="0px"
	 viewBox="0 0 27 25.8" style="enable-background:new 0 0 27 25.8;" xml:space="preserve">
<style type="text/css">
	.st0{fill-rule:evenodd;clip-rule:evenodd;fill:#9D9D9C;}
</style>
<path class="st0" d="M10.5,0C4.7,0,0,4.6,0,10.4c0,5.7,4.7,10.4,10.5,10.4c2.5,0,4.8-0.9,6.6-2.3c0.1,0.1,0.2,0.3,0.3,0.4l6.5,6.5
	c0.4,0.4,0.8,0.5,1.3,0.5s0.9-0.2,1.3-0.5c0.7-0.7,0.7-1.9,0-2.6l-6.5-6.5c-0.2-0.2-0.4-0.3-0.6-0.4c1-1.6,1.6-3.5,1.6-5.5
	C20.9,4.6,16.2,0,10.5,0 M10.5,3.2c4,0,7.2,3.2,7.2,7.2c0,1.3-0.4,2.6-1.1,3.8l-0.7,1L15,15.9c-1.3,1-2.9,1.6-4.6,1.6
	c-4,0-7.3-3.2-7.3-7.2C3.2,6.4,6.5,3.2,10.5,3.2"/>
</svg>
